<svg style="max-height: 500px" viewBox="8.828999999999999 8.014999999999999 82 82.5" y="0px" x="0px" version="1.1" xmlns="http://www.w3.org/2000/svg" width="82" height="82.5">
  <rect style="stroke: rgb(0, 0, 0);" height="81.089" width="81.089" y="8.8" x="9.328"/>
  <path style="fill: rgb(255, 255, 255);" d="M 44.536 33.724 C 45.033 33.724 45.435 33.311 45.435 32.802 L 45.435 29.43 C 45.435 28.921 45.033 28.509 44.536 28.509 C 44.037 28.509 43.635 28.921 43.635 29.43 L 43.635 32.802 C 43.635 33.311 44.037 33.724 44.536 33.724 Z"/>
  <path style="fill: rgb(255, 255, 255);" d="M 50.28 33.724 C 50.778 33.724 51.181 33.311 51.181 32.802 L 51.181 29.43 C 51.181 28.921 50.778 28.509 50.28 28.509 C 49.782 28.509 49.379 28.921 49.379 29.43 L 49.379 32.802 C 49.379 33.311 49.782 33.724 50.28 33.724 Z"/>
  <path style="fill: rgb(255, 255, 255);" d="M 56.025 33.724 C 56.523 33.724 56.926 33.311 56.926 32.802 L 56.926 29.43 C 56.926 28.921 56.523 28.509 56.025 28.509 C 55.528 28.509 55.125 28.921 55.125 29.43 L 55.125 32.802 C 55.125 33.311 55.528 33.724 56.025 33.724 Z"/>
  <path style="fill: rgb(255, 255, 255);" d="M 43.635 43.527 C 43.635 44.036 44.037 44.448 44.536 44.448 C 45.033 44.448 45.435 44.036 45.435 43.527 L 45.435 40.154 C 45.435 39.646 45.033 39.234 44.536 39.234 C 44.037 39.234 43.635 39.646 43.635 40.154 L 43.635 43.527 Z"/>
  <path style="fill: rgb(255, 255, 255);" d="M 49.379 43.527 C 49.379 44.036 49.782 44.448 50.28 44.448 C 50.778 44.448 51.181 44.036 51.181 43.527 L 51.181 40.154 C 51.181 39.646 50.778 39.234 50.28 39.234 C 49.782 39.234 49.379 39.646 49.379 40.154 L 49.379 43.527 Z"/>
  <path style="fill: rgb(255, 255, 255);" d="M 55.125 43.527 C 55.125 44.036 55.528 44.448 56.025 44.448 C 56.523 44.448 56.926 44.036 56.926 43.527 L 56.926 40.154 C 56.926 39.646 56.523 39.234 56.025 39.234 C 55.528 39.234 55.125 39.646 55.125 40.154 L 55.125 43.527 Z"/>
  <path style="fill: rgb(255, 255, 255);" d="M 43.635 54.251 C 43.635 54.76 44.037 55.173 44.536 55.173 C 45.033 55.173 45.435 54.76 45.435 54.251 L 45.435 50.879 C 45.435 50.37 45.033 49.957 44.536 49.957 C 44.037 49.957 43.635 50.37 43.635 50.879 L 43.635 54.251 Z"/>
  <path style="fill: rgb(255, 255, 255);" d="M 49.379 54.251 C 49.379 54.76 49.782 55.173 50.28 55.173 C 50.778 55.173 51.181 54.76 51.181 54.251 L 51.181 50.879 C 51.181 50.37 50.778 49.957 50.28 49.957 C 49.782 49.957 49.379 50.37 49.379 50.879 L 49.379 54.251 Z"/>
  <path style="fill: rgb(255, 255, 255);" d="M 55.125 54.251 C 55.125 54.76 55.528 55.173 56.025 55.173 C 56.523 55.173 56.926 54.76 56.926 54.251 L 56.926 50.879 C 56.926 50.37 56.523 49.957 56.025 49.957 C 55.528 49.957 55.125 50.37 55.125 50.879 L 55.125 54.251 Z"/>
  <path style="fill: rgb(255, 255, 255);" d="M 43.635 64.976 C 43.635 65.485 44.037 65.896 44.536 65.896 C 45.033 65.896 45.435 65.485 45.435 64.976 L 45.435 61.605 C 45.435 61.096 45.033 60.684 44.536 60.684 C 44.037 60.684 43.635 61.096 43.635 61.605 L 43.635 64.976 Z"/>
  <path style="fill: rgb(255, 255, 255);" d="M 49.379 64.976 C 49.379 65.485 49.782 65.896 50.28 65.896 C 50.778 65.896 51.181 65.485 51.181 64.976 L 51.181 61.605 C 51.181 61.096 50.778 60.684 50.28 60.684 C 49.782 60.684 49.379 61.096 49.379 61.605 L 49.379 64.976 Z"/>
  <path style="fill: rgb(255, 255, 255);" d="M 55.125 64.976 C 55.125 65.485 55.528 65.896 56.025 65.896 C 56.523 65.896 56.926 65.485 56.926 64.976 L 56.926 61.605 C 56.926 61.096 56.523 60.684 56.025 60.684 C 55.528 60.684 55.125 61.096 55.125 61.605 L 55.125 64.976 Z"/>
  <path style="fill: rgb(255, 255, 255);" d="M 43.635 75.7 C 43.635 76.21 44.037 76.621 44.536 76.621 C 45.033 76.621 45.435 76.21 45.435 75.7 L 45.435 72.329 C 45.435 71.82 45.033 71.407 44.536 71.407 C 44.037 71.407 43.635 71.82 43.635 72.329 L 43.635 75.7 Z"/>
  <path style="fill: rgb(255, 255, 255);" d="M 49.379 75.7 C 49.379 76.21 49.782 76.621 50.28 76.621 C 50.778 76.621 51.181 76.21 51.181 75.7 L 51.181 72.329 C 51.181 71.82 50.778 71.407 50.28 71.407 C 49.782 71.407 49.379 71.82 49.379 72.329 L 49.379 75.7 Z"/>
  <path style="fill: rgb(255, 255, 255);" d="M 55.125 75.7 C 55.125 76.21 55.528 76.621 56.025 76.621 C 56.523 76.621 56.926 76.21 56.926 75.7 L 56.926 72.329 C 56.926 71.82 56.523 71.407 56.025 71.407 C 55.528 71.407 55.125 71.82 55.125 72.329 L 55.125 75.7 Z"/>
  <path style="fill: rgb(255, 255, 255);" d="M 43.635 86.424 C 43.635 86.935 44.037 87.346 44.536 87.346 C 45.033 87.346 45.435 86.935 45.435 86.424 L 45.435 83.054 C 45.435 82.545 45.033 82.132 44.536 82.132 C 44.037 82.132 43.635 82.545 43.635 83.054 L 43.635 86.424 Z"/>
  <path style="fill: rgb(255, 255, 255);" d="M 49.379 86.424 C 49.379 86.935 49.782 87.346 50.28 87.346 C 50.778 87.346 51.181 86.935 51.181 86.424 L 51.181 83.054 C 51.181 82.545 50.778 82.132 50.28 82.132 C 49.782 82.132 49.379 82.545 49.379 83.054 L 49.379 86.424 Z"/>
  <path style="fill: rgb(255, 255, 255);" d="M 55.125 86.424 C 55.125 86.935 55.528 87.346 56.025 87.346 C 56.523 87.346 56.926 86.935 56.926 86.424 L 56.926 83.054 C 56.926 82.545 56.523 82.132 56.025 82.132 C 55.528 82.132 55.125 82.545 55.125 83.054 L 55.125 86.424 Z"/>
  <path style="fill: rgb(255, 255, 255);" d="M 21.126 44.448 C 21.622 44.448 22.026 44.036 22.026 43.527 L 22.026 40.154 C 22.026 39.646 21.622 39.234 21.126 39.234 C 20.627 39.234 20.225 39.646 20.225 40.154 L 20.225 43.527 C 20.225 44.036 20.627 44.448 21.126 44.448 Z"/>
  <path style="fill: rgb(255, 255, 255);" d="M 26.87 44.448 C 27.369 44.448 27.77 44.036 27.77 43.527 L 27.77 40.154 C 27.77 39.646 27.369 39.234 26.87 39.234 C 26.373 39.234 25.97 39.646 25.97 40.154 L 25.97 43.527 C 25.97 44.036 26.373 44.448 26.87 44.448 Z"/>
  <path style="fill: rgb(255, 255, 255);" d="M 32.616 44.448 C 33.113 44.448 33.516 44.036 33.516 43.527 L 33.516 40.154 C 33.516 39.646 33.113 39.234 32.616 39.234 C 32.118 39.234 31.715 39.646 31.715 40.154 L 31.715 43.527 C 31.715 44.036 32.118 44.448 32.616 44.448 Z"/>
  <path style="fill: rgb(255, 255, 255);" d="M 20.225 54.251 C 20.225 54.76 20.627 55.173 21.126 55.173 C 21.622 55.173 22.026 54.76 22.026 54.251 L 22.026 50.879 C 22.026 50.37 21.622 49.957 21.126 49.957 C 20.627 49.957 20.225 50.37 20.225 50.879 L 20.225 54.251 Z"/>
  <path style="fill: rgb(255, 255, 255);" d="M 25.97 54.251 C 25.97 54.76 26.373 55.173 26.87 55.173 C 27.369 55.173 27.77 54.76 27.77 54.251 L 27.77 50.879 C 27.77 50.37 27.369 49.957 26.87 49.957 C 26.373 49.957 25.97 50.37 25.97 50.879 L 25.97 54.251 Z"/>
  <path style="fill: rgb(255, 255, 255);" d="M 31.715 54.251 C 31.715 54.76 32.118 55.173 32.616 55.173 C 33.113 55.173 33.516 54.76 33.516 54.251 L 33.516 50.879 C 33.516 50.37 33.113 49.957 32.616 49.957 C 32.118 49.957 31.715 50.37 31.715 50.879 L 31.715 54.251 Z"/>
  <path style="fill: rgb(255, 255, 255);" d="M 20.225 64.976 C 20.225 65.485 20.627 65.896 21.126 65.896 C 21.622 65.896 22.026 65.485 22.026 64.976 L 22.026 61.605 C 22.026 61.096 21.622 60.684 21.126 60.684 C 20.627 60.684 20.225 61.096 20.225 61.605 L 20.225 64.976 Z"/>
  <path style="fill: rgb(255, 255, 255);" d="M 25.97 64.976 C 25.97 65.485 26.373 65.896 26.87 65.896 C 27.369 65.896 27.77 65.485 27.77 64.976 L 27.77 61.605 C 27.77 61.096 27.369 60.684 26.87 60.684 C 26.373 60.684 25.97 61.096 25.97 61.605 L 25.97 64.976 Z"/>
  <path style="fill: rgb(255, 255, 255);" d="M 31.715 64.976 C 31.715 65.485 32.118 65.896 32.616 65.896 C 33.113 65.896 33.516 65.485 33.516 64.976 L 33.516 61.605 C 33.516 61.096 33.113 60.684 32.616 60.684 C 32.118 60.684 31.715 61.096 31.715 61.605 L 31.715 64.976 Z"/>
  <path style="fill: rgb(255, 255, 255);" d="M 20.225 75.7 C 20.225 76.21 20.627 76.621 21.126 76.621 C 21.622 76.621 22.026 76.21 22.026 75.7 L 22.026 72.329 C 22.026 71.82 21.622 71.407 21.126 71.407 C 20.627 71.407 20.225 71.82 20.225 72.329 L 20.225 75.7 Z"/>
  <path style="fill: rgb(255, 255, 255);" d="M 25.97 75.7 C 25.97 76.21 26.373 76.621 26.87 76.621 C 27.369 76.621 27.77 76.21 27.77 75.7 L 27.77 72.329 C 27.77 71.82 27.369 71.407 26.87 71.407 C 26.373 71.407 25.97 71.82 25.97 72.329 L 25.97 75.7 Z"/>
  <path style="fill: rgb(255, 255, 255);" d="M 31.715 75.7 C 31.715 76.21 32.118 76.621 32.616 76.621 C 33.113 76.621 33.516 76.21 33.516 75.7 L 33.516 72.329 C 33.516 71.82 33.113 71.407 32.616 71.407 C 32.118 71.407 31.715 71.82 31.715 72.329 L 31.715 75.7 Z"/>
  <path style="fill: rgb(255, 255, 255);" d="M 20.225 86.424 C 20.225 86.935 20.627 87.346 21.126 87.346 C 21.622 87.346 22.026 86.935 22.026 86.424 L 22.026 83.054 C 22.026 82.545 21.622 82.132 21.126 82.132 C 20.627 82.132 20.225 82.545 20.225 83.054 L 20.225 86.424 Z"/>
  <path style="fill: rgb(255, 255, 255);" d="M 25.97 86.424 C 25.97 86.935 26.373 87.346 26.87 87.346 C 27.369 87.346 27.77 86.935 27.77 86.424 L 27.77 83.054 C 27.77 82.545 27.369 82.132 26.87 82.132 C 26.373 82.132 25.97 82.545 25.97 83.054 L 25.97 86.424 Z"/>
  <path style="fill: rgb(255, 255, 255);" d="M 31.715 86.424 C 31.715 86.935 32.118 87.346 32.616 87.346 C 33.113 87.346 33.516 86.935 33.516 86.424 L 33.516 83.054 C 33.516 82.545 33.113 82.132 32.616 82.132 C 32.118 82.132 31.715 82.545 31.715 83.054 L 31.715 86.424 Z"/>
  <path style="fill: rgb(255, 255, 255);" d="M 85.395 64.053 L 62.886 64.053 L 62.886 21.435 C 62.886 20.926 62.484 20.513 61.985 20.513 L 38.575 20.513 C 38.078 20.513 37.675 20.926 37.675 21.435 L 37.675 31.879 L 15.165 31.879 C 14.667 31.879 14.264 32.292 14.264 32.802 L 14.264 93.308 C 14.264 93.817 14.667 94.23 15.165 94.23 C 15.663 94.23 16.066 93.817 16.066 93.308 L 16.066 33.724 L 37.675 33.724 L 37.675 93.308 C 37.675 93.817 38.078 94.23 38.575 94.23 C 39.073 94.23 39.475 93.817 39.475 93.308 L 39.475 32.802 L 39.475 22.357 L 61.085 22.357 L 61.085 64.976 L 61.085 93.308 C 61.085 93.817 61.488 94.23 61.985 94.23 C 62.484 94.23 62.886 93.817 62.886 93.308 L 62.886 65.896 L 84.494 65.896 L 84.494 93.308 C 84.494 93.817 84.897 94.23 85.395 94.23 C 85.893 94.23 86.296 93.817 86.296 93.308 L 86.296 64.976 C 86.296 64.466 85.893 64.053 85.395 64.053 Z"/>
  <path style="fill: rgb(255, 255, 255);" d="M 67.944 76.621 C 68.443 76.621 68.845 76.21 68.845 75.7 L 68.845 72.329 C 68.845 71.82 68.443 71.407 67.944 71.407 C 67.448 71.407 67.045 71.82 67.045 72.329 L 67.045 75.7 C 67.045 76.21 67.448 76.621 67.944 76.621 Z"/>
  <path style="fill: rgb(255, 255, 255);" d="M 73.69 76.621 C 74.187 76.621 74.59 76.21 74.59 75.7 L 74.59 72.329 C 74.59 71.82 74.187 71.407 73.69 71.407 C 73.193 71.407 72.79 71.82 72.79 72.329 L 72.79 75.7 C 72.79 76.21 73.193 76.621 73.69 76.621 Z"/>
  <path style="fill: rgb(255, 255, 255);" d="M 79.436 76.621 C 79.933 76.621 80.336 76.21 80.336 75.7 L 80.336 72.329 C 80.336 71.82 79.933 71.407 79.436 71.407 C 78.938 71.407 78.535 71.82 78.535 72.329 L 78.535 75.7 C 78.535 76.21 78.938 76.621 79.436 76.621 Z"/>
  <path style="fill: rgb(255, 255, 255);" d="M 67.045 86.424 C 67.045 86.935 67.448 87.346 67.944 87.346 C 68.443 87.346 68.845 86.935 68.845 86.424 L 68.845 83.054 C 68.845 82.545 68.443 82.132 67.944 82.132 C 67.448 82.132 67.045 82.545 67.045 83.054 L 67.045 86.424 Z"/>
  <path style="fill: rgb(255, 255, 255);" d="M 72.79 86.424 C 72.79 86.935 73.193 87.346 73.69 87.346 C 74.187 87.346 74.59 86.935 74.59 86.424 L 74.59 83.054 C 74.59 82.545 74.187 82.132 73.69 82.132 C 73.193 82.132 72.79 82.545 72.79 83.054 L 72.79 86.424 Z"/>
  <path style="fill: rgb(255, 255, 255);" d="M 78.535 86.424 C 78.535 86.935 78.938 87.346 79.436 87.346 C 79.933 87.346 80.336 86.935 80.336 86.424 L 80.336 83.054 C 80.336 82.545 79.933 82.132 79.436 82.132 C 78.938 82.132 78.535 82.545 78.535 83.054 L 78.535 86.424 Z"/>
</svg>